<svg width="69" height="42" viewBox="0 0 69 42" fill="none" xmlns="http://www.w3.org/2000/svg">
<circle cx="21" cy="21" r="21" fill="#00462D"/>
<circle cx="48" cy="21" r="21" fill="#0DB579"/>
<path fill-rule="evenodd" clip-rule="evenodd" d="M34.5 37.1728C39.0854 33.3206 42 27.5439 42 21.0864C42 14.629 39.0854 8.8523 34.5 5.00009C29.9146 8.8523 27 14.629 27 21.0864C27 27.5439 29.9146 33.3206 34.5 37.1728Z" fill="#026A45"/>
<path d="M7.64881 27V16.4888H9.19458V18.962H9.29763V27H7.64881ZM14.7387 27V20.0338C14.7387 19.2368 14.5601 18.6529 14.2028 18.2819C13.8456 17.9109 13.3304 17.7254 12.6571 17.7254C12.025 17.7254 11.4548 17.8766 10.9464 18.1788C10.4381 18.4811 10.0327 18.9002 9.73044 19.4361C9.4419 19.9719 9.29763 20.5971 9.29763 21.3116L9.0297 18.8178C9.38694 18.0346 9.9228 17.4163 10.6373 16.9628C11.3518 16.5094 12.1281 16.2827 12.9662 16.2827C13.983 16.2827 14.8074 16.585 15.4395 17.1896C16.0715 17.7804 16.3875 18.5842 16.3875 19.6009V27H14.7387ZM21.8286 27V20.0338C21.8286 19.2368 21.65 18.6529 21.2927 18.2819C20.9355 17.9109 20.4202 17.7254 19.747 17.7254C19.1149 17.7254 18.5447 17.8766 18.0363 18.1788C17.528 18.4811 17.1226 18.9002 16.8203 19.4361C16.5318 19.9719 16.3875 20.5971 16.3875 21.3116L15.9753 18.8178C16.3326 18.0346 16.8822 17.4163 17.6241 16.9628C18.3661 16.5094 19.163 16.2827 20.0149 16.2827C21.0317 16.2827 21.863 16.585 22.5087 17.1896C23.1545 17.7804 23.4774 18.5842 23.4774 19.6009V27H21.8286Z" fill="#F7F7F7"/>
<path d="M45.6488 27V16.4888H47.1946V18.962H47.2976V27H45.6488ZM52.7387 27V20.0338C52.7387 19.2368 52.5601 18.6529 52.2028 18.2819C51.8456 17.9109 51.3304 17.7254 50.6571 17.7254C50.025 17.7254 49.4548 17.8766 48.9464 18.1788C48.4381 18.4811 48.0327 18.9002 47.7304 19.4361C47.4419 19.9719 47.2976 20.5971 47.2976 21.3116L47.0297 18.8178C47.3869 18.0346 47.9228 17.4163 48.6373 16.9628C49.3518 16.5094 50.1281 16.2827 50.9662 16.2827C51.983 16.2827 52.8074 16.585 53.4395 17.1896C54.0715 17.7804 54.3875 18.5842 54.3875 19.6009V27H52.7387ZM59.8286 27V20.0338C59.8286 19.2368 59.65 18.6529 59.2927 18.2819C58.9355 17.9109 58.4202 17.7254 57.747 17.7254C57.1149 17.7254 56.5447 17.8766 56.0363 18.1788C55.528 18.4811 55.1226 18.9002 54.8203 19.4361C54.5318 19.9719 54.3875 20.5971 54.3875 21.3116L53.9753 18.8178C54.3326 18.0346 54.8822 17.4163 55.6241 16.9628C56.3661 16.5094 57.163 16.2827 58.0149 16.2827C59.0317 16.2827 59.863 16.585 60.5087 17.1896C61.1545 17.7804 61.4774 18.5842 61.4774 19.6009V27H59.8286Z" fill="#F7F7F7"/>
<path d="M38.038 26L33.0529 20.8861C32.7695 20.5855 32.5376 20.3107 32.3573 20.0617C32.1769 19.8127 32.0438 19.5722 31.958 19.3403C31.8721 19.1085 31.8292 18.8723 31.8292 18.6319C31.8292 18.2368 31.9322 17.889 32.1383 17.5885C32.3444 17.2793 32.6235 17.0389 32.9756 16.8671C33.3363 16.6868 33.7485 16.5966 34.2122 16.5966C34.6588 16.5966 35.0624 16.6825 35.4231 16.8542C35.7837 17.0174 36.0714 17.2493 36.2861 17.5498C36.5008 17.8504 36.6081 18.2111 36.6081 18.6319C36.6081 19.1557 36.4063 19.6194 36.0027 20.0231C35.5991 20.4181 34.9765 20.753 34.1349 21.0278L33.5939 20.3708C34.2551 20.2077 34.7532 19.9844 35.0881 19.701C35.4316 19.409 35.6034 19.0655 35.6034 18.6705C35.6034 18.2927 35.4617 17.9964 35.1783 17.7817C34.9035 17.567 34.5729 17.4597 34.1864 17.4597C33.8086 17.4597 33.4908 17.5627 33.2332 17.7688C32.9842 17.9749 32.8597 18.2712 32.8597 18.6576C32.8597 18.8294 32.894 19.0011 32.9627 19.1729C33.04 19.3446 33.1688 19.5421 33.3492 19.7654C33.5295 19.9887 33.7871 20.2721 34.122 20.6156L39.3905 26H38.038ZM33.9803 26.1288C33.3105 26.1288 32.7223 26.0129 32.2156 25.781C31.7089 25.5492 31.3139 25.2228 31.0305 24.802C30.7557 24.3812 30.6183 23.8918 30.6183 23.3336C30.6183 22.6466 30.8588 22.0454 31.3397 21.5302C31.8206 21.0149 32.4732 20.6714 33.2976 20.4997L33.8644 21.1437C33.3835 21.2468 32.9799 21.3971 32.6536 21.5946C32.3272 21.7835 32.0782 22.0154 31.9064 22.2902C31.7433 22.565 31.6617 22.8827 31.6617 23.2434C31.6617 23.8703 31.8721 24.3598 32.2929 24.7119C32.7137 25.064 33.289 25.24 34.019 25.24C34.56 25.24 35.0366 25.1455 35.4488 24.9566C35.8696 24.7677 36.226 24.4929 36.518 24.1322C36.8099 23.7629 37.0289 23.3164 37.1749 22.7925C37.3295 22.2687 37.4068 21.6719 37.4068 21.002H38.4244C38.4244 21.6289 38.3557 22.2086 38.2183 22.741C38.0895 23.2734 37.8963 23.7501 37.6386 24.1708C37.381 24.5916 37.0676 24.948 36.6983 25.24C36.3376 25.5234 35.9297 25.7424 35.4746 25.8969C35.0194 26.0515 34.5214 26.1288 33.9803 26.1288Z" fill="#F7F7F7"/>
</svg>
