<svg width="24" height="24" viewBox="0 0 24 24" fill="none" xmlns="http://www.w3.org/2000/svg">
<rect width="24" height="24" fill="#F7F7F7"/>
<path d="M21.312 2.689C21.1234 2.5005 20.8879 2.36569 20.6299 2.29846C20.3718 2.23122 20.1005 2.234 19.8439 2.3065H19.8298L1.83543 7.7665C1.54251 7.85074 1.28221 8.02221 1.08917 8.25808C0.896144 8.49395 0.779547 8.78303 0.75491 9.08682C0.730272 9.39061 0.798764 9.6947 0.951265 9.95859C1.10376 10.2225 1.33304 10.4337 1.60855 10.564L9.63543 14.3656L13.437 22.3924C13.557 22.6495 13.7481 22.8668 13.9876 23.0188C14.2271 23.1708 14.5052 23.2511 14.7889 23.2502C14.832 23.2502 14.8751 23.2484 14.9182 23.2446C15.221 23.2201 15.5089 23.1036 15.7435 22.9107C15.9782 22.7178 16.1482 22.4578 16.2307 22.1656L21.687 4.17119C21.687 4.1665 21.687 4.16181 21.687 4.15712C21.7604 3.90115 21.7644 3.63024 21.6985 3.37223C21.6326 3.11421 21.4992 2.8784 21.312 2.689ZM14.7973 21.7362L14.7926 21.7493L11.1026 13.9596L15.5314 9.52994C15.6661 9.38814 15.7401 9.19933 15.7376 9.00376C15.7351 8.80818 15.6563 8.62133 15.518 8.48303C15.3797 8.34473 15.1928 8.26592 14.9972 8.26342C14.8017 8.26091 14.6128 8.33491 14.4711 8.46962L10.0414 12.8984L2.25074 9.20837H2.26386L20.2507 3.75025L14.7973 21.7362Z" fill="#171717"/>
</svg>
